<?xml version="1.0" encoding="UTF-8" standalone="no"?>
<!-- Created with Inkscape (http://www.inkscape.org/) -->

<svg
   xmlns:dc="http://purl.org/dc/elements/1.1/"
   xmlns:cc="http://creativecommons.org/ns#"
   xmlns:rdf="http://www.w3.org/1999/02/22-rdf-syntax-ns#"
   xmlns:svg="http://www.w3.org/2000/svg"
   xmlns="http://www.w3.org/2000/svg"
   xmlns:sodipodi="http://sodipodi.sourceforge.net/DTD/sodipodi-0.dtd"
   xmlns:inkscape="http://www.inkscape.org/namespaces/inkscape"
   id="svg3336"
   version="1.1"
   inkscape:version="0.48.5 r10040"
   xml:space="preserve"
   width="26.481703"
   height="30.000002"
   viewBox="0 0 26.481702 30.000002"
   sodipodi:docname="tre_vaakuna_vari1.svg"><metadata
     id="metadata3342"><rdf:RDF><cc:Work
         rdf:about=""><dc:format>image/svg+xml</dc:format><dc:type
           rdf:resource="http://purl.org/dc/dcmitype/StillImage" /><dc:title /></cc:Work></rdf:RDF></metadata><defs
     id="defs3340" /><sodipodi:namedview
     pagecolor="#ffffff"
     bordercolor="#666666"
     borderopacity="1"
     objecttolerance="10"
     gridtolerance="10"
     guidetolerance="10"
     inkscape:pageopacity="0"
     inkscape:pageshadow="2"
     inkscape:window-width="1920"
     inkscape:window-height="1018"
     id="namedview3338"
     showgrid="false"
     units="mm"
     borderlayer="false"
     inkscape:document-units="mm"
     fit-margin-top="0"
     fit-margin-left="0"
     fit-margin-right="0"
     fit-margin-bottom="0"
     inkscape:zoom="1"
     inkscape:cx="112.78136"
     inkscape:cy="127.76524"
     inkscape:window-x="-8"
     inkscape:window-y="-8"
     inkscape:window-maximized="1"
     inkscape:current-layer="g3344" /><g
     id="g3344"
     inkscape:groupmode="layer"
     inkscape:label="tre_vaakuna_vari1"
     transform="matrix(1.25,0,0,-1.25,-1.1504453e-6,30.000015)"><g
       id="g3366"
       transform="matrix(0.11740282,0,0,0.11740282,-1.2643696,-73.927359)"><path
         inkscape:connector-curvature="0"
         id="path3346"
         style="fill:#ed1c24;fill-opacity:1;fill-rule:evenodd;stroke:none"
         d="m 10.7695,833.9351 180.4502,0 0,-125.0367 c 0,-38.2797 -40.2436,-79.2085 -90.2251,-79.2085 -47.3379,0 -90.2251,41.6416 -90.2251,79.2085 0,34.5088 0,125.0367 0,125.0367 z" /><path
         inkscape:connector-curvature="0"
         id="path3348"
         style="fill:#fab215;fill-opacity:1;fill-rule:nonzero;stroke:none"
         d="m 12.8115,694.668 c 7.5147,10.0078 12.7256,0.8169 18.4468,15.4878 3.5391,9.0747 1.4346,18.5986 22.1675,23.9609 23.4336,6.061 6.0801,26.8306 35.4214,33.9868 22.4951,5.4863 4.2534,29.897 37.1797,35.0449 18.2397,2.8521 7.3071,24.4756 28.5576,30.9659 l 36.4795,-0.1368 0,-29.9892 C 162.1699,801.6616 174.3076,774.5244 151.7813,771.314 122.603,767.1553 141.4146,741.9902 111.3735,736.269 88.9097,731.9907 103.1416,709.7969 79.8979,703.7173 55.9604,697.4556 63.355,688.709 55.9365,677.9624 48.7808,667.5962 37.5088,671.5781 31.6167,662.1201 24.3491,669.0723 15.4116,683.0732 12.8115,694.668 z" /><path
         inkscape:connector-curvature="0"
         id="path3350"
         style="fill:#fab215;fill-opacity:1;fill-rule:evenodd;stroke:#ed1c24;stroke-width:1;stroke-linecap:butt;stroke-linejoin:miter;stroke-miterlimit:3.86369991;stroke-opacity:1;stroke-dasharray:none"
         d="m 148.6338,697.3652 c -0.1499,-3.0844 -7.9409,-5.0044 -7.1572,-5.3628 4.2675,-1.9506 6.9497,-3.4892 6.9497,-3.4892 5.3178,2.0259 7.4526,6.354 7.0244,10.6357 -0.4878,4.877 -5.2466,7.5747 -9.8286,5.9273 -1.0093,-0.3628 -2.6709,-1.6133 -2.4385,-3.1231 0.2436,-1.5849 3.0478,0.4878 3.0478,-0.2436 0,-0.875 -0.8535,0.2436 -1.7915,-1.3487 -0.7133,-1.2114 1.3482,-2.5463 3.1206,-1.1162 0.5674,-0.3061 1.1226,-0.8598 1.0733,-1.8794 z" /><path
         inkscape:connector-curvature="0"
         id="path3352"
         style="fill:#fab215;fill-opacity:1;fill-rule:evenodd;stroke:#ed1c24;stroke-width:1;stroke-linecap:butt;stroke-linejoin:miter;stroke-miterlimit:3.86369991;stroke-opacity:1;stroke-dasharray:none"
         d="m 133.9644,654.3188 c 0.0532,-0.0249 0.122,-3.4135 0.122,-3.4135 -4.8818,-0.5991 -2.4941,-4.3657 -6.0888,-4.127 -3.6836,0.9878 -1.3179,7.1216 2.4174,8.6675 1.9322,-0.7729 1.9805,-0.3892 3.5494,-1.127 z" /><path
         inkscape:connector-curvature="0"
         id="path3354"
         style="fill:#fab215;fill-opacity:1;fill-rule:nonzero;stroke:none"
         d="m 125.8984,729.1128 c 0,0 1.1153,-4.0435 2.8584,-6.0103 1.1499,-1.6235 5.0703,-3.851 5.1109,2.272 -2.3228,1.2764 -3.8975,3.7461 -3.8975,6.584 0,4.146 3.3609,7.5068 7.5069,7.5068 4.1459,0 7.5068,-3.3608 7.5068,-7.5068 0,-2.7695 -1.4995,-5.1885 -3.731,-6.4897 10e-4,-6.2403 3.9556,-3.9981 5.1114,-2.3663 1.7431,1.9668 2.8584,6.0103 2.8584,6.0103 18.812,-0.6274 19.9975,2.5796 20.6943,1.1855 0.9761,-4.4765 -10.7798,-6.2197 -9.2315,-6.7773 3.625,-1.6035 8.5347,0.9062 8.2559,-0.5576 -0.9067,-4.4068 -10.5566,-4.5464 -11.1143,-5.4527 -0.2788,-1.3945 6.7769,-1.0459 7.0557,-2.0219 0.6973,-2.6636 -11.602,-2.9424 -12.3686,-2.8033 -0.9068,-1.0454 4.8247,-0.976 4.476,-2.2309 -1.0454,-2.3701 -9.0923,0.2095 -9.4409,-0.0698 -1.185,-1.0454 3.7793,-2.231 2.3154,-3.3609 -0.4394,-0.6709 -5.8393,-0.5947 -8.9589,2.4766 l -0.2989,-62.4224 c 0,-3.3843 -6.3798,-4.5825 -6.08,0 l -0.2354,62.499 c -3.1064,-3.1464 -8.5918,-3.2294 -9.0352,-2.5532 -1.4643,1.1299 3.5005,2.3155 2.315,3.3609 -0.3482,0.2793 -8.395,-2.3003 -9.4409,0.0698 -0.3487,1.2549 5.3828,1.1855 4.4765,2.2309 -0.7666,-0.1391 -13.0659,0.1397 -12.3691,2.8033 0.2788,0.976 7.335,0.6274 7.0561,2.0219 -0.5576,0.9063 -10.208,1.0459 -11.1142,5.4527 -0.2788,1.4638 4.6304,-1.0459 8.2558,0.5576 1.5484,0.5576 -10.208,2.3008 -9.2319,6.7773 0.6973,1.3941 1.8823,-1.8129 20.6948,-1.1855 z" /><path
         inkscape:connector-curvature="0"
         id="path3356"
         style="fill:#fab215;fill-opacity:1;fill-rule:nonzero;stroke:#ed1c24;stroke-width:1;stroke-linecap:butt;stroke-linejoin:miter;stroke-miterlimit:3.86369991;stroke-opacity:1;stroke-dasharray:none"
         d="m 141.4585,691.728 c 10.5786,-2.042 15.0898,-15.2378 3.188,-19.0176 -0.084,-0.0263 -1.7598,0.75 -3.2686,1.4542 -0.1499,-0.15 -0.0229,1.8378 -0.0229,1.8378 6.7348,2.6705 5.4863,9.0972 -4.2207,10.6822 -16.9087,2.8359 -18.0684,6.6587 -18.0684,11.7329 0,3.6572 3.9932,8.6484 9.5806,6.7807 1.0171,-0.3403 3.2514,-1.8032 2.8042,-3.3671 -0.4878,-1.7066 -3.292,0.6098 -3.583,-0.272 -0.1831,-0.5537 2.2905,-0.2818 2.8515,-1.0689 0.816,-1.145 -2.1093,-2.9951 -4.4257,-1.1665 -0.5674,-0.3061 -1.0835,-1.3501 -0.6861,-2.29 0.9434,-2.2319 3.2525,-2.5259 9.3325,-3.9341 2.0357,-0.4492 3.4004,-0.3657 6.5186,-1.3716 z" /><path
         inkscape:connector-curvature="0"
         id="path3358"
         style="fill:#fab215;fill-opacity:1;fill-rule:nonzero;stroke:#ed1c24;stroke-width:1;stroke-linecap:butt;stroke-linejoin:miter;stroke-miterlimit:3.86369991;stroke-opacity:1;stroke-dasharray:none"
         d="m 127.6714,688.7104 c 0.0786,0.0401 3.414,-1.1831 6.0493,-1.7822 0.1665,0.1309 0,-2.1943 0,-2.1943 -2.3696,-0.4624 -3.8271,-2.3652 -3.9766,-3.4141 -0.2998,-2.8457 0.6246,-4.1098 8.4302,-6.625 13.8628,-3.1567 12.3975,-9.7959 11.7901,-12.2539 -0.7618,-3.0845 -3.5772,-5.0449 -6.5118,-6.0932 -0.6894,0.0371 -0.896,0.5976 -2.2036,1.3017 -0.1318,0.0708 -0.0376,1.6485 -0.0376,1.6485 -0.0244,0.2104 3.1084,2.229 3.1084,4.3437 0,1.7549 -0.1611,3.9951 -6.8291,5.7778 -19.8921,3.5347 -16.2344,16.0459 -9.8193,19.291 z" /><path
         inkscape:connector-curvature="0"
         id="path3360"
         style="fill:#fab215;fill-opacity:1;fill-rule:evenodd;stroke:#ed1c24;stroke-width:1;stroke-linecap:butt;stroke-linejoin:miter;stroke-miterlimit:3.86369991;stroke-opacity:1;stroke-dasharray:none"
         d="m 126.5742,658.5391 c 2.3814,-2.4092 6.5366,-3.6109 6.5366,-3.6109 3.7588,-1.8012 4.0162,-1.8012 6.335,-2.8315 4.9082,-1.8032 4.0068,-5.8101 6.353,-5.3184 2.8457,0.982 1.7393,6.7603 -2.9326,9.2744 -3.6206,2.0118 -5.2602,2.3897 -7.3169,3.3399 -6.6587,3.1699 -6.9028,6.6504 -1.8286,10.3169 -2.2583,1.1059 -3.7007,1.1172 -5.1089,2.123 -3.7793,-1.707 -7.1719,-8.0986 -2.0376,-13.2934 z" /><path
         inkscape:connector-curvature="0"
         id="path3362"
         style="fill:#fab215;fill-opacity:1;fill-rule:nonzero;stroke:none"
         d="m 60.9458,794.2236 -5e-4,-50.1113 -21.9717,0 0,50.1113 21.9722,0 z" /><path
         inkscape:connector-curvature="0"
         id="path3364"
         style="fill:#fab215;fill-opacity:1;fill-rule:nonzero;stroke:none"
         d="m 23.4097,820.9111 44.687,0 11.8012,-10.248 0,-13.7769 -18.9521,0 -21.9722,0 -15.5639,0 0,24.0249 z" /></g></g></svg>